# xmcd
# Copyright (C) 1995-1998 Ti Kan
#
# Track frame offsets:
#       150
#       14039
#       33134
#       48541
#       61182
#       74987
#       89494
#       105821
#       122480
#       144310
#
# Disc length: 2276 seconds
#
# Revision: 0
# Processed by: cddbd v1.5.2PL0 Copyright (c) Steve Scherf et al.
# Submitted via: CD-Import v1.0
#
DISCID=8608e20a
DTITLE=Louis Xiv - The Best Little Secrets Are Kept
DYEAR=2005
DGENRE=
TTITLE0=Louis Xiv
TTITLE1=Finding Out True Love Is Blind
TTITLE2=Paper Doll
TTITLE3=God Killed The Queen
TTITLE4=A Letter To Dominique
TTITLE5=Illegal Tender
TTITLE6=Pledge Of Allegiance
TTITLE7=Hey Teacher
TTITLE8=All The Little Pieces
TTITLE9=Ball Of Twine
EXTD=
EXTT0=
EXTT1=
EXTT2=
EXTT3=
EXTT4=
EXTT5=
EXTT6=
EXTT7=
EXTT8=
EXTT9=
PLAYORDER=
